<svg xmlns="http://www.w3.org/2000/svg" viewBox="315 330 385 375">
  <defs>
    <linearGradient id="g1" gradientUnits="userSpaceOnUse" x1="315" y1="517" x2="700" y2="517">
      <stop offset="0" stop-color="#FFFFFF"/>
      <stop offset="0.35" stop-color="#C4BFFF"/>
      <stop offset="0.7" stop-color="#5C4CFF"/>
      <stop offset="1" stop-color="#3D2DB3"/>
      <animateTransform attributeName="gradientTransform" type="rotate" from="0 507 517" to="360 507 517" dur="5s" repeatCount="indefinite"/>
    </linearGradient>
  </defs>
  <path d="M612.772522,685.350708 C613.891052,687.902649 616.029114,689.651184 615.756897,692.659485 C612.030884,693.921753 608.204224,693.215332 604.463989,693.284424 C597.800476,693.407654 591.126648,693.139343 584.469543,693.380127 C580.840332,693.511292 578.659485,692.217651 576.861816,689.074463 C568.838928,675.046875 560.544250,661.174622 552.530151,647.142151 C550.921082,644.324768 549.089355,643.051697 545.817322,643.195251 C540.724670,643.418579 535.615051,643.254272 529.389709,643.254272 C538.865234,660.153442 547.832153,676.145447 557.261658,692.962524 C479.821320,692.962524 403.630646,692.962524 327.572662,692.962524 C326.617401,690.716064 327.977234,689.454773 328.753082,688.050903 C347.124329,654.806763 365.472778,621.549866 383.941559,588.359985 C385.606537,585.367920 385.732452,583.076233 383.772919,580.154358 C378.222229,571.877563 372.963531,563.404968 367.680389,555.150940 C369.205963,552.927856 371.034729,553.716797 372.560699,553.710815 C388.058594,553.650269 403.559448,553.830566 419.053162,553.567688 C423.186890,553.497620 425.105133,555.327942 427.404114,558.379578 C432.247253,564.808472 431.812256,570.187500 427.800507,577.219238 C413.192749,602.823608 399.362701,628.871887 385.270111,654.769409 C384.413635,656.343384 383.197723,657.802124 383.101257,660.195251 C421.738159,660.195251 460.296631,660.195251 499.287903,660.195251 C497.906342,654.875122 494.956146,650.848450 492.330750,646.736328 C490.131836,643.292175 489.738586,640.371460 491.931274,636.660156 C496.250153,629.350281 500.166107,621.797668 504.099609,614.267578 C505.396484,611.784851 506.986359,610.572937 509.924316,610.596985 C534.077454,610.794434 558.220154,609.566101 582.387817,610.421204 C596.645081,610.925659 610.934753,610.513428 626.385254,610.513428 C623.355286,604.814148 621.026611,600.292480 618.571533,595.840515 C608.033142,576.730408 597.376465,557.684814 586.966125,538.505371 C584.962708,534.814392 582.580505,533.265198 578.323669,533.330566 C563.672913,533.555847 549.014404,533.573730 534.364136,533.338806 C530.091980,533.270386 527.425110,534.561401 525.873352,538.550171 C524.676819,541.625916 522.476318,544.273926 521.612915,548.484619 C535.670959,548.484619 549.504150,548.484619 562.955017,548.484619 C564.178284,551.192017 562.863586,552.517334 562.132080,553.928711 C558.222778,561.471497 554.073608,568.896423 550.380249,576.542175 C548.393677,580.654663 545.830750,582.407349 541.102478,582.270203 C529.780212,581.941956 518.438232,582.337280 507.111572,582.095215 C502.950134,582.006348 500.497009,583.220947 498.461243,587.050842 C489.627075,603.670227 480.369843,620.064209 471.458252,636.643250 C469.666962,639.975708 467.633148,641.512939 463.692810,641.379761 C455.037140,641.087219 446.364594,641.310059 437.699097,641.278503 C436.064484,641.272583 434.351013,641.598022 432.858459,640.598145 C431.944153,638.903564 433.150970,637.725586 433.855713,636.468872 C441.433777,622.955750 448.934204,609.397217 456.702026,595.993774 C458.447815,592.981384 458.347626,590.728394 456.665863,587.789795 C444.585388,566.680847 432.729431,545.443359 420.613800,524.354858 C418.643005,520.924500 418.377441,518.190186 420.402802,514.688110 C425.071503,506.615540 429.335083,498.309143 433.804474,490.120239 C434.653015,488.565491 435.285034,486.764618 437.999573,485.589264 C450.912384,508.958679 463.793365,532.270508 477.361572,556.826050 C480.761597,550.867981 483.442719,546.341858 485.959473,541.726257 C492.658691,529.440125 499.372467,517.160156 505.882935,504.774017 C507.489502,501.717468 509.446991,500.554810 512.916504,500.568481 C541.912537,500.682953 570.909607,500.696503 599.905029,500.519958 C603.452881,500.498383 604.892090,502.209290 606.335938,504.835449 C623.350830,535.781738 640.409485,566.703857 657.474731,597.622437 C658.749268,599.931519 659.795227,602.411560 662.177063,604.664429 C670.742249,598.043091 677.358459,589.428772 685.336426,582.478088 C687.534607,583.420532 686.971375,585.126526 686.974487,586.496643 C687.012146,603.327454 686.888306,620.159424 687.057495,636.988647 C687.104858,641.696838 685.515442,643.367126 680.677429,643.338257 C653.015198,643.173279 625.351379,643.279968 597.688110,643.329956 C595.228455,643.334412 592.707703,642.959656 589.450867,644.308228 C597.218567,657.988037 604.897278,671.511047 612.772522,685.350708z" fill="url(#g1)"/>
  <path d="M523.855408,425.081543 C521.484985,420.881561 519.291870,417.002136 516.554626,412.160126 C500.140900,441.813629 485.187408,471.241760 468.760010,499.476746 C466.687195,499.750488 466.237335,498.532135 465.708313,497.552673 C460.723480,488.323395 455.838043,479.039612 450.766113,469.858734 C449.297424,467.200256 449.527222,465.085602 450.997345,462.468567 C459.151337,447.952820 467.119873,433.332855 475.144562,418.744598 C475.935028,417.307526 477.087280,416.021759 477.143951,413.376373 C466.708466,411.459869 455.903870,414.267151 444.283295,412.073914 C452.319855,397.733887 460.009705,384.012634 468.329346,369.167572 C474.362396,379.690796 479.679810,388.965729 485.602325,399.296143 C496.038971,380.539398 505.861115,362.886993 515.683289,345.234619 C516.249756,345.152679 516.816284,345.070770 517.382751,344.988831 C542.870972,390.771881 568.359192,436.554932 593.758423,482.178223 C591.634216,484.469574 589.510742,483.986389 587.602417,483.960724 C569.286804,483.714325 550.963013,484.395355 532.652344,483.470001 C530.598511,483.366211 528.742676,483.406250 527.526184,481.261108 C522.270203,471.992828 516.918884,462.778687 511.632965,453.527252 C511.331024,452.998810 511.301819,452.314575 510.885468,450.683472 C519.636536,450.683472 527.948059,450.683472 537.712952,450.683472 C532.664124,441.353088 528.348450,433.377594 523.855408,425.081543z" fill="url(#g1)"/>
</svg>
